G04 #@! TF.GenerationSoftware,KiCad,Pcbnew,5.1.2-f72e74a~84~ubuntu18.04.1*
G04 #@! TF.CreationDate,2019-08-14T11:41:20+03:00*
G04 #@! TF.ProjectId,atmega328pb_minimal_board,61746d65-6761-4333-9238-70625f6d696e,rev?*
G04 #@! TF.SameCoordinates,Original*
G04 #@! TF.FileFunction,Copper,L1,Top*
G04 #@! TF.FilePolarity,Positive*
%FSLAX46Y46*%
G04 Gerber Fmt 4.6, Leading zero omitted, Abs format (unit mm)*
G04 Created by KiCad (PCBNEW 5.1.2-f72e74a~84~ubuntu18.04.1) date 2019-08-14 11:41:20*
%MOMM*%
%LPD*%
G04 APERTURE LIST*
%ADD10C,1.600000*%
%ADD11R,1.800000X1.800000*%
%ADD12C,1.800000*%
%ADD13R,1.700000X1.700000*%
%ADD14O,1.700000X1.700000*%
%ADD15O,1.600000X1.600000*%
%ADD16R,1.600000X0.550000*%
%ADD17R,0.550000X1.600000*%
%ADD18C,1.500000*%
%ADD19C,0.800000*%
%ADD20C,0.400000*%
%ADD21C,0.800000*%
%ADD22C,0.200000*%
%ADD23C,0.600000*%
G04 APERTURE END LIST*
D10*
X132755000Y-81915000D03*
X135255000Y-81915000D03*
X126960000Y-81280000D03*
X124460000Y-81280000D03*
X99060000Y-109220000D03*
X99060000Y-111720000D03*
X99060000Y-114300000D03*
X99060000Y-116800000D03*
D11*
X138430000Y-102235000D03*
D12*
X140970000Y-102235000D03*
D13*
X127000000Y-87630000D03*
D14*
X127000000Y-85090000D03*
X124460000Y-87630000D03*
X124460000Y-85090000D03*
X121920000Y-87630000D03*
X121920000Y-85090000D03*
X119380000Y-87630000D03*
X119380000Y-85090000D03*
X116840000Y-87630000D03*
X116840000Y-85090000D03*
D10*
X105410000Y-97155000D03*
D15*
X115570000Y-97155000D03*
X139700000Y-97790000D03*
D10*
X139700000Y-87630000D03*
D16*
X117670000Y-103880000D03*
X117670000Y-104680000D03*
X117670000Y-105480000D03*
X117670000Y-106280000D03*
X117670000Y-107080000D03*
X117670000Y-107880000D03*
X117670000Y-108680000D03*
X117670000Y-109480000D03*
D17*
X119120000Y-110930000D03*
X119920000Y-110930000D03*
X120720000Y-110930000D03*
X121520000Y-110930000D03*
X122320000Y-110930000D03*
X123120000Y-110930000D03*
X123920000Y-110930000D03*
X124720000Y-110930000D03*
D16*
X126170000Y-109480000D03*
X126170000Y-108680000D03*
X126170000Y-107880000D03*
X126170000Y-107080000D03*
X126170000Y-106280000D03*
X126170000Y-105480000D03*
X126170000Y-104680000D03*
X126170000Y-103880000D03*
D17*
X124720000Y-102430000D03*
X123920000Y-102430000D03*
X123120000Y-102430000D03*
X122320000Y-102430000D03*
X121520000Y-102430000D03*
X120720000Y-102430000D03*
X119920000Y-102430000D03*
X119120000Y-102430000D03*
D18*
X105410000Y-110490000D03*
X105410000Y-115370000D03*
D13*
X132715000Y-86995000D03*
D14*
X135255000Y-86995000D03*
D19*
X135255000Y-96520000D03*
X129540000Y-97790000D03*
X125095000Y-99060000D03*
X133350000Y-105410000D03*
X123825000Y-90805000D03*
X121285000Y-99060000D03*
X113665000Y-93345000D03*
X126365000Y-116205000D03*
D20*
X117794999Y-106404999D02*
X117670000Y-106280000D01*
D21*
X126960000Y-85050000D02*
X127000000Y-85090000D01*
X126960000Y-81280000D02*
X126960000Y-85050000D01*
X127000000Y-85090000D02*
X128905000Y-85090000D01*
X130810000Y-86995000D02*
X132715000Y-86995000D01*
X128905000Y-85090000D02*
X130810000Y-86995000D01*
X132755000Y-86955000D02*
X132715000Y-86995000D01*
X132755000Y-81915000D02*
X132755000Y-86955000D01*
X132715000Y-86995000D02*
X132715000Y-88645000D01*
X135255000Y-91185000D02*
X135255000Y-96520000D01*
X132715000Y-88645000D02*
X135255000Y-91185000D01*
D22*
X126170000Y-108680000D02*
X128175000Y-108680000D01*
X128175000Y-108680000D02*
X129540000Y-107315000D01*
X129540000Y-107315000D02*
X129540000Y-97790000D01*
D21*
X143510000Y-89535000D02*
X136525000Y-96520000D01*
X143510000Y-83820000D02*
X143510000Y-89535000D01*
X135890000Y-76200000D02*
X143510000Y-83820000D01*
X124460000Y-76200000D02*
X135890000Y-76200000D01*
X136525000Y-96520000D02*
X135255000Y-96520000D01*
X105410000Y-90170000D02*
X111940001Y-83639999D01*
X111940001Y-83639999D02*
X111940001Y-83004999D01*
X111940001Y-83004999D02*
X114300000Y-80645000D01*
X105410000Y-97155000D02*
X105410000Y-90170000D01*
X114300000Y-80645000D02*
X120015000Y-80645000D01*
X120015000Y-80645000D02*
X124460000Y-76200000D01*
X129540000Y-97790000D02*
X125730000Y-97790000D01*
X125730000Y-97790000D02*
X122555000Y-94615000D01*
X122555000Y-94615000D02*
X114935000Y-94615000D01*
X114935000Y-94615000D02*
X113030000Y-96520000D01*
X113030000Y-96520000D02*
X113030000Y-104140000D01*
X113030000Y-104140000D02*
X114300000Y-105410000D01*
D22*
X115170000Y-106280000D02*
X117670000Y-106280000D01*
X114300000Y-105410000D02*
X115170000Y-106280000D01*
D21*
X99060000Y-111720000D02*
X99060000Y-114300000D01*
D22*
X117670000Y-107080000D02*
X122155000Y-107080000D01*
X122955000Y-106280000D02*
X126170000Y-106280000D01*
X122155000Y-107080000D02*
X122955000Y-106280000D01*
D21*
X124460000Y-81280000D02*
X124460000Y-85090000D01*
X116840000Y-85090000D02*
X119380000Y-85090000D01*
X119380000Y-85090000D02*
X121920000Y-85090000D01*
X121920000Y-85090000D02*
X124460000Y-85090000D01*
X99060000Y-111720000D02*
X97115000Y-111720000D01*
X97115000Y-111720000D02*
X96520000Y-111125000D01*
X96520000Y-111125000D02*
X96520000Y-107950000D01*
X96520000Y-107950000D02*
X97790000Y-106680000D01*
D22*
X117670000Y-107080000D02*
X114065000Y-107080000D01*
X113665000Y-106680000D02*
X111125000Y-106680000D01*
X114065000Y-107080000D02*
X113665000Y-106680000D01*
D21*
X116840000Y-85090000D02*
X114935000Y-85090000D01*
X114935000Y-85090000D02*
X110490000Y-89535000D01*
X110490000Y-104140000D02*
X107950000Y-106680000D01*
X97790000Y-106680000D02*
X107950000Y-106680000D01*
X110490000Y-89535000D02*
X110490000Y-104140000D01*
X107950000Y-106680000D02*
X111125000Y-106680000D01*
X135255000Y-81915000D02*
X135255000Y-86995000D01*
X124460000Y-81280000D02*
X124460000Y-80010000D01*
X124460000Y-80010000D02*
X125730000Y-78740000D01*
X125730000Y-78740000D02*
X133350000Y-78740000D01*
X135255000Y-80645000D02*
X135255000Y-81915000D01*
X133350000Y-78740000D02*
X135255000Y-80645000D01*
X139065000Y-86995000D02*
X139700000Y-87630000D01*
X135255000Y-86995000D02*
X139065000Y-86995000D01*
X99060000Y-109220000D02*
X104140000Y-109220000D01*
X104140000Y-109220000D02*
X105410000Y-110490000D01*
D22*
X107220000Y-108680000D02*
X105410000Y-110490000D01*
X117670000Y-108680000D02*
X107220000Y-108680000D01*
D21*
X99060000Y-116800000D02*
X104100000Y-116800000D01*
X104100000Y-116680000D02*
X105410000Y-115370000D01*
X104100000Y-116800000D02*
X104100000Y-116680000D01*
D22*
X105410000Y-115370000D02*
X108150000Y-115370000D01*
X114040000Y-109480000D02*
X117670000Y-109480000D01*
X108150000Y-115370000D02*
X114040000Y-109480000D01*
D21*
X138430000Y-99060000D02*
X139700000Y-97790000D01*
X138430000Y-102235000D02*
X138430000Y-99060000D01*
D22*
X124720000Y-102430000D02*
X124720000Y-99435000D01*
X124720000Y-99435000D02*
X125095000Y-99060000D01*
D21*
X133350000Y-105410000D02*
X139700000Y-105410000D01*
X140970000Y-104140000D02*
X140970000Y-102235000D01*
X139700000Y-105410000D02*
X140970000Y-104140000D01*
X127000000Y-87630000D02*
X128270000Y-88900000D01*
X128270000Y-88900000D02*
X132080000Y-92710000D01*
X132080000Y-92710000D02*
X132080000Y-93980000D01*
D22*
X123920000Y-110930000D02*
X123920000Y-116935000D01*
X125730000Y-118745000D02*
X129540000Y-118745000D01*
X123920000Y-116935000D02*
X125730000Y-118745000D01*
X129540000Y-118745000D02*
X131445000Y-116840000D01*
X132080000Y-95250000D02*
X132080000Y-93980000D01*
X131445000Y-116840000D02*
X131445000Y-95885000D01*
X131445000Y-95885000D02*
X132080000Y-95250000D01*
D21*
X121920000Y-87630000D02*
X121920000Y-88900000D01*
X121920000Y-88900000D02*
X123825000Y-90805000D01*
D22*
X121520000Y-101430000D02*
X121520000Y-102430000D01*
X121520000Y-99860685D02*
X121520000Y-101430000D01*
X121285000Y-99625685D02*
X121520000Y-99860685D01*
X121285000Y-99060000D02*
X121285000Y-99625685D01*
D21*
X119380000Y-97155000D02*
X121285000Y-99060000D01*
X115570000Y-97155000D02*
X119380000Y-97155000D01*
D22*
X126170000Y-109480000D02*
X126740000Y-109480000D01*
X126170000Y-109480000D02*
X129915000Y-109480000D01*
X129915000Y-109480000D02*
X130810000Y-108585000D01*
X130810000Y-108585000D02*
X130810000Y-94615000D01*
D23*
X119380000Y-88832081D02*
X122622919Y-92075000D01*
X119380000Y-87630000D02*
X119380000Y-88832081D01*
X122622919Y-92075000D02*
X128270000Y-92075000D01*
X128270000Y-92075000D02*
X130810000Y-94615000D01*
D21*
X116840000Y-87630000D02*
X115990001Y-88479999D01*
X115990001Y-88479999D02*
X113665000Y-90805000D01*
X113665000Y-90805000D02*
X113665000Y-93345000D01*
D22*
X124720000Y-111500000D02*
X125730000Y-112510000D01*
X124720000Y-110930000D02*
X124720000Y-111500000D01*
X125730000Y-112510000D02*
X125730000Y-115570000D01*
X125730000Y-115570000D02*
X126365000Y-116205000D01*
M02*
